<?xml version="1.0" standalone="no"?>
<!DOCTYPE svg PUBLIC "-//W3C//DTD SVG 20010904//EN"
 "http://www.w3.org/TR/2001/REC-SVG-20010904/DTD/svg10.dtd">
<svg version="1.0" xmlns="http://www.w3.org/2000/svg"
 width="164.000000pt" height="164.000000pt" viewBox="0 0 164.000000 164.000000"
 preserveAspectRatio="xMidYMid meet">
<metadata>
Created by potrace 1.11, written by Peter Selinger 2001-2013
</metadata>
<g transform="translate(0.000000,164.000000) scale(0.100000,-0.100000)"
fill="#000000" stroke="none">
<path d="M690 1600 c0 -3 -8 -6 -17 -7 -46 -2 -71 -8 -67 -14 2 -4 0 -10 -6
-14 -5 -3 -10 0 -10 8 0 10 -11 14 -37 12 -21 -1 -40 -4 -43 -5 -3 -2 -12 -3
-20 -4 -8 -1 -15 -8 -15 -16 0 -8 7 -14 15 -12 8 1 2 -10 -15 -24 -16 -15 -28
-28 -25 -30 3 -1 1 -6 -4 -11 -5 -4 -6 -3 -2 4 3 6 2 14 -4 18 -5 3 -10 -3
-10 -14 0 -11 -5 -23 -12 -27 -7 -4 -8 -3 -4 4 4 7 3 12 -2 12 -6 0 -12 -7
-16 -15 -3 -8 -16 -15 -28 -15 -17 0 -29 -11 -43 -36 -18 -34 -78 -84 -100
-84 -5 0 8 15 29 34 21 18 36 38 32 44 -3 6 1 9 11 8 10 -2 21 2 25 8 12 17 9
28 -4 19 -7 -4 -29 -8 -48 -8 -42 -1 -80 -13 -81 -26 -1 -5 -2 -13 -3 -19 0
-5 -17 -27 -38 -49 -20 -22 -34 -42 -30 -45 3 -3 -1 -6 -8 -6 -7 0 -10 -3 -7
-7 4 -4 27 14 51 40 24 26 41 48 39 51 -5 5 49 20 61 17 5 -1 5 6 2 16 -6 14
-5 15 5 6 10 -10 1 -23 -39 -61 -29 -28 -52 -57 -52 -66 0 -11 5 -15 13 -10
12 7 -59 -74 -78 -88 -7 -5 -7 -8 0 -8 6 0 3 -5 -5 -10 -13 -8 -13 -10 1 -10
9 0 20 7 23 16 3 8 10 12 16 9 5 -3 10 -1 10 5 0 6 4 8 10 5 14 -9 12 -21 -6
-39 -9 -9 -17 -23 -18 -30 -1 -8 -8 -22 -16 -32 -9 -11 -10 -15 -2 -10 17 10
15 -12 -3 -31 -17 -16 -12 -33 11 -33 8 0 14 -5 14 -11 0 -5 5 -7 11 -4 7 5 6
11 -3 18 -7 7 -11 11 -9 10 2 -1 13 3 25 9 19 10 19 9 8 -5 -11 -13 -10 -17 4
-25 15 -8 14 -11 -7 -31 -12 -11 -19 -21 -13 -21 5 0 2 -5 -6 -10 -8 -5 -10
-10 -4 -10 6 0 20 11 30 25 10 14 24 25 31 25 7 0 13 5 13 12 0 6 3 8 7 5 3
-4 -2 -17 -13 -29 l-19 -22 28 18 c36 22 71 30 60 13 -9 -15 -11 -67 -3 -67
14 0 19 14 9 26 -7 8 -6 14 2 20 7 4 9 3 5 -4 -11 -18 11 -23 27 -7 20 19 33
20 17 0 -6 -8 -9 -19 -5 -24 3 -7 0 -8 -9 -5 -10 4 -16 1 -16 -8 0 -21 39 -15
59 8 9 11 27 28 40 39 l25 20 -24 -34 c-21 -31 -22 -33 -3 -22 20 10 38 38 35
53 -1 4 5 5 13 2 15 -6 20 -22 17 -56 -2 -26 8 -22 46 15 19 18 30 25 27 15
-4 -10 -11 -18 -17 -18 -5 0 -6 -4 -3 -10 3 -5 1 -10 -5 -10 -6 0 -8 -5 -4
-12 4 -6 3 -8 -3 -5 -6 4 -15 -6 -22 -21 -11 -26 -11 -26 5 -7 9 11 14 13 10
5 -3 -8 -9 -23 -12 -32 -4 -10 -11 -18 -16 -18 -5 0 -6 6 -3 13 4 6 -3 1 -14
-12 -12 -13 -21 -28 -21 -35 0 -6 7 -2 15 8 8 11 15 15 15 10 0 -6 -5 -15 -12
-22 -7 -7 -9 -12 -4 -12 4 0 -2 -13 -14 -30 -12 -16 -18 -30 -13 -30 4 0 3 -4
-3 -8 -6 -4 -21 -25 -33 -47 l-22 -40 6 35 c4 19 7 41 8 48 0 7 13 24 29 38
27 22 28 29 5 25 -5 -1 -6 3 -2 9 3 6 11 7 17 4 7 -5 8 -2 3 5 -6 10 -10 10
-21 -1 -7 -7 -14 -20 -16 -28 -2 -8 -9 -20 -16 -25 -13 -10 -25 -62 -26 -112
-1 -11 -3 -20 -7 -18 -11 7 -26 -51 -18 -70 8 -18 8 -17 6 4 -1 14 4 26 13 28
9 3 11 1 5 -4 -5 -4 -11 -17 -12 -28 -1 -11 -4 -29 -7 -40 -2 -11 -5 -23 -5
-27 -1 -5 -9 -8 -18 -8 -14 0 -18 -10 -20 -48 -2 -37 0 -42 7 -24 5 12 12 22
14 22 9 0 -6 -34 -22 -53 -8 -9 -12 -20 -9 -24 4 -3 7 -1 7 5 0 7 4 12 9 12 5
0 7 -9 4 -20 -3 -11 -8 -18 -12 -16 -4 3 -8 -7 -9 -22 -1 -21 0 -23 8 -12 8
13 11 13 22 1 7 -8 8 -11 2 -8 -14 8 -20 -18 -22 -103 l-1 -65 18 39 c10 21
21 33 25 28 3 -6 2 -13 -4 -17 -6 -4 -7 -11 -4 -17 3 -5 6 -28 6 -51 -1 -28 2
-37 8 -27 5 8 6 18 4 22 -3 4 0 8 6 8 6 0 8 5 3 13 -4 6 -8 18 -9 25 -2 10 1
10 11 2 8 -7 19 -9 24 -5 6 3 8 0 5 -8 -3 -8 0 -18 5 -22 6 -3 8 -11 5 -17 -4
-7 -2 -8 4 -4 7 4 12 17 12 29 0 13 3 17 8 11 4 -6 15 -10 25 -8 17 2 22 -15
19 -58 -2 -25 7 -22 18 5 8 20 9 18 9 -12 1 -39 10 -38 13 2 3 29 13 26 13 -4
0 -30 19 -22 31 14 14 42 40 43 37 2 -2 -28 -1 -29 12 -11 11 14 12 23 4 32
-13 16 -4 34 17 34 8 0 14 4 14 9 0 5 6 11 13 14 8 3 14 -1 14 -9 0 -7 -4 -11
-9 -8 -4 3 -8 -2 -8 -10 0 -9 6 -15 13 -13 8 1 11 -10 9 -38 -3 -35 7 -46 12
-13 1 7 5 19 9 26 5 7 6 21 2 31 -3 11 -1 22 5 26 6 4 11 1 9 -6 -3 -25 1 -52
7 -47 3 3 7 31 8 62 2 31 6 59 10 63 3 4 4 -13 2 -37 -2 -24 -2 -50 1 -57 9
-24 23 7 17 37 -5 20 -3 22 6 10 9 -12 10 -11 5 8 -4 13 -2 22 4 22 6 0 11 5
11 11 0 5 -5 7 -12 3 -7 -4 -8 -3 -4 5 6 9 12 9 24 -1 10 -7 14 -8 10 -4 -4 5
0 15 10 23 15 13 14 14 -13 8 -30 -6 -30 -6 -7 10 12 9 20 21 17 26 -4 5 -1 9
5 9 7 0 9 -7 6 -16 -5 -12 -1 -14 15 -9 11 4 26 1 34 -5 11 -9 55 -11 162 -6
170 6 173 7 173 18 0 4 5 8 11 8 5 0 8 -4 5 -9 -11 -18 74 -5 92 14 16 18 16
18 -1 5 -27 -20 -79 -21 -75 -1 2 11 17 17 52 19 39 3 55 10 83 37 21 21 32
39 27 46 -4 7 -3 10 3 6 10 -6 63 63 63 82 0 5 7 14 15 21 8 7 13 16 10 20 -3
4 2 10 10 14 8 3 12 12 9 20 -3 8 0 17 7 22 8 5 10 3 4 -7 -5 -8 -4 -10 0 -6
12 10 15 38 4 31 -5 -3 -9 0 -9 5 0 6 6 11 13 11 13 1 51 69 43 78 -3 3 -10
-6 -15 -19 -5 -13 -10 -19 -10 -13 -1 6 6 29 15 49 16 40 26 125 14 125 -15 0
-19 -14 -8 -29 7 -9 8 -13 4 -9 -5 4 -15 3 -23 -3 -16 -14 -17 -3 -3 37 6 16
12 61 14 99 2 39 7 86 11 105 5 20 4 32 -1 27 -5 -5 -9 -12 -10 -15 -6 -38
-19 -74 -27 -79 -5 -3 -8 -2 -5 3 3 5 2 18 -2 29 -7 18 -9 16 -15 -12 -6 -25
-10 -30 -20 -20 -18 19 -23 40 -14 63 10 29 0 38 -18 16 -12 -15 -13 -14 -8
13 3 17 2 24 -1 16 -5 -11 -8 -11 -15 0 -7 11 -9 10 -9 -3 0 -21 -16 -24 -23
-5 -3 6 -6 3 -6 -7 -1 -26 -14 -11 -19 21 -4 32 -28 59 -35 40 -4 -8 -6 -7 -7
3 0 8 -7 0 -15 -17 -17 -40 -34 -43 -27 -5 l5 27 -22 -23 c-12 -12 -19 -27
-16 -32 4 -6 -1 -13 -9 -16 -8 -3 -18 -14 -21 -25 -12 -36 -25 -19 -25 31 0
35 -4 50 -13 50 -9 0 -13 11 -11 33 3 29 3 30 -5 7 -8 -23 -9 -22 -10 13 -1
20 -4 36 -8 36 -21 -3 -24 3 -12 18 9 10 9 14 2 10 -7 -5 -17 1 -23 13 -6 11
-15 18 -19 16 -4 -3 -13 6 -20 20 -14 31 -14 34 2 30 6 -1 9 -1 4 2 -4 2 -12
13 -18 24 -10 18 -9 20 5 15 21 -8 20 -5 -3 22 -10 12 -17 30 -14 40 3 10 0
22 -5 25 -6 3 -8 -2 -5 -13 5 -20 -18 -42 -25 -23 -2 7 -7 10 -11 8 -4 -3 -7
5 -6 17 1 12 -5 28 -14 35 -13 11 -13 12 -1 6 8 -4 4 5 -9 19 -25 27 -37 35
-26 17 3 -5 2 -10 -3 -10 -14 0 -21 36 -10 51 7 10 8 9 4 -5 -5 -16 -4 -17 9
-6 8 7 12 16 9 21 -3 5 0 9 7 9 7 0 10 2 7 5 -3 3 -17 1 -32 -5 -21 -8 -31 -7
-42 5 -22 21 -40 19 -23 -2 12 -16 12 -17 -2 -6 -9 7 -20 9 -24 5 -5 -4 -5 -1
-1 6 4 7 2 12 -7 12 -8 0 -22 11 -32 24 -19 24 -30 27 -54 12 -10 -6 -12 -5
-7 3 5 8 -2 11 -23 9 -17 -1 -31 -5 -31 -8z m-129 -37 c13 -17 13 -17 -5 -3
-18 14 -19 13 -13 -2 3 -9 -1 -22 -9 -28 -8 -7 -14 -9 -14 -5 0 4 -8 1 -17 -6
-17 -13 -17 -13 -3 6 8 11 20 23 25 27 7 5 7 8 0 8 -7 0 13 19 21 20 1 0 8 -8
15 -17z m-337 -158 c-10 -8 -23 -15 -28 -15 -6 0 -1 7 10 15 10 8 23 15 28 15
6 0 1 -7 -10 -15z m741 5 c3 -5 1 -10 -4 -10 -6 0 -11 5 -11 10 0 6 2 10 4 10
3 0 8 -4 11 -10z m71 -49 c-4 -5 -1 -11 6 -13 6 -2 8 -10 4 -17 -6 -9 -11 -8
-21 6 -10 13 -10 20 -2 25 16 10 19 10 13 -1z m-532 -395 c-3 -9 -10 -16 -15
-16 -6 0 -5 9 1 21 13 24 24 20 14 -5z m66 -60 c0 -2 -7 -7 -16 -10 -8 -3 -12
-2 -9 4 6 10 25 14 25 6z m977 -168 c-3 -8 -6 -5 -6 6 -1 11 2 17 5 13 3 -3 4
-12 1 -19z m-187 -363 c0 -2 -6 -8 -13 -14 -10 -8 -14 -7 -14 2 0 8 6 14 14
14 7 0 13 -1 13 -2z m-40 -29 c0 -2 -7 -6 -15 -10 -8 -3 -15 -1 -15 4 0 6 7
10 15 10 8 0 15 -2 15 -4z m-384 -94 c1 -7 0 -8 -3 -2 -2 5 -9 8 -13 5 -5 -3
-12 0 -15 6 -5 7 -1 10 10 7 10 -1 20 -9 21 -16z m-49 -8 c-3 -3 -12 -4 -19
-1 -8 3 -5 6 6 6 11 1 17 -2 13 -5z m-202 -72 c-3 -3 -11 0 -18 7 -9 10 -8 11
6 5 10 -3 15 -9 12 -12z m15 -27 c0 -2 -6 -5 -13 -8 -8 -3 -14 1 -14 8 0 7 6
11 14 8 7 -3 13 -6 13 -8z"/>
<path d="M446 1552 c-4 -4 -11 -7 -14 -8 -4 0 -28 -11 -54 -24 -36 -18 -48
-30 -48 -47 0 -17 4 -21 18 -16 9 4 24 15 33 25 9 10 19 14 23 10 4 -4 12 1
17 11 6 9 14 15 20 12 5 -4 9 -2 9 4 0 5 7 11 17 13 14 3 14 4 1 15 -8 7 -18
9 -22 5z m-16 -22 c0 -5 -16 -17 -35 -26 -19 -9 -35 -20 -35 -25 0 -5 -4 -9
-10 -9 -22 0 -7 20 33 43 23 14 43 25 45 26 1 1 2 -3 2 -9z"/>
<path d="M998 1532 c9 -10 19 -17 21 -16 6 5 -20 34 -30 34 -5 0 -1 -8 9 -18z"/>
<path d="M1018 1483 c6 -2 9 -10 6 -15 -4 -7 -2 -8 5 -4 13 9 5 26 -12 25 -9
0 -8 -2 1 -6z"/>
<path d="M270 1460 c-23 -18 -24 -19 -3 -14 12 3 24 12 27 20 7 18 6 18 -24
-6z"/>
<path d="M300 1449 c0 -5 5 -7 10 -4 6 3 10 8 10 11 0 2 -4 4 -10 4 -5 0 -10
-5 -10 -11z"/>
<path d="M1020 1440 c0 -5 5 -10 11 -10 5 0 7 5 4 10 -3 6 -8 10 -11 10 -2 0
-4 -4 -4 -10z"/>
<path d="M1138 1290 c12 -11 22 -26 22 -32 0 -6 3 -9 6 -6 9 10 -14 45 -33 52
-14 6 -13 2 5 -14z"/>
<path d="M1090 1260 c0 -5 5 -10 10 -10 6 0 10 5 10 10 0 6 -4 10 -10 10 -5 0
-10 -4 -10 -10z"/>
<path d="M1135 1229 c11 -13 25 -27 30 -31 6 -5 5 -8 -2 -8 -8 0 -10 -7 -6
-17 4 -11 8 -13 11 -5 2 7 8 10 13 6 22 -13 -15 43 -39 60 l-27 20 20 -25z"/>
<path d="M1201 1074 c0 -11 3 -14 6 -6 3 7 2 16 -1 19 -3 4 -6 -2 -5 -13z"/>
<path d="M450 865 c-7 -9 -11 -17 -9 -20 3 -2 10 5 17 15 14 24 10 26 -8 5z"/>
<path d="M1556 835 c-3 -8 -1 -15 4 -15 6 0 10 7 10 15 0 8 -2 15 -4 15 -2 0
-6 -7 -10 -15z"/>
<path d="M420 820 c0 -5 5 -10 11 -10 5 0 7 5 4 10 -3 6 -8 10 -11 10 -2 0 -4
-4 -4 -10z"/>
<path d="M299 503 c-12 -16 -12 -17 2 -6 9 7 20 9 24 5 5 -4 5 -1 1 6 -9 16
-11 15 -27 -5z"/>
<path d="M310 479 c0 -5 5 -7 10 -4 6 3 10 8 10 11 0 2 -4 4 -10 4 -5 0 -10
-5 -10 -11z"/>
</g>
</svg>
